# xmcd CD database file generated by libcdaudio 0.99.6
# 
# Track frame offsets:
#       150
#       18385
#       30745
#       35990
#       48650
#       64017
#       73387
#       86482
#       102500
#       115892
#       131020
#       146957
#       162612
#       176467
#       190932
#       204557
#       215352
#       228512
#       240942
#       246905
# 
# Disc length: 3478 seconds
# 
# Revision: 3
# Processed by: cddbd v1.4PL0 Copyright (c) Steve Scherf et al.
# Submitted via: libcdaudio 0.99.6
# 
DISCID=320d9414
DTITLE=Paul Robeson - The Voice Of The Mississippi
DYEAR=1900
DGENRE=
TTITLE0=Ol' Man River
TTITLE1=Were You There When They Crucified My Lord
TTITLE2=Shortnin' Bread
TTITLE3=Swing Low, Sweet Chariot
TTITLE4=Love Song (From Sanders Of The River)
TTITLE5=Fat Li'l Feller With His Mammy's Eyes
TTITLE6=Round The Bend Of The Road
TTITLE7=Don't You Cry, My Honey 
TTITLE8=Take Me Away From the River
TTITLE9=Mighty Lak' A Rose
TTITLE10=Rockin' Chair
TTITLE11=Old Kentuky Home
TTITLE12=Piccaninny Slumber song
TTITLE13=My Lindy Lou
TTITLE14=My Curly Headed Baby
TTITLE15=Killing Song
TTITLE16=Carry Me Back To Green Pastures
TTITLE17=Lonesome Road
TTITLE18=Get On Board, Little Children  
TTITLE19=Just Keepin' On
EXTD=
EXTT0=
EXTT1=
EXTT2=
EXTT3=
EXTT4=
EXTT5=
EXTT6=
EXTT7=
EXTT8=
EXTT9=
EXTT10=
EXTT11=
EXTT12=
EXTT13=
EXTT14=
EXTT15=
EXTT16=
EXTT17=
EXTT18=
EXTT19=
PLAYORDER=
